<svg width="54" height="50" viewBox="0 0 54 50" fill="none" xmlns="http://www.w3.org/2000/svg">
<path d="M34.3216 18C37.1175 18 39.3841 20.2666 39.3841 23.0625V37.1226C39.3841 43.9585 33.8425 49.5 27.0067 49.5C20.1709 49.5 14.6293 43.9585 14.6293 37.1226V23.0625C14.6293 20.2666 16.8959 18 19.6918 18H34.3216ZM34.3216 21.375H19.6918C18.7599 21.375 18.0043 22.1305 18.0043 23.0625V37.1226C18.0043 42.0945 22.0348 46.125 27.0067 46.125C31.9786 46.125 36.0091 42.0945 36.0091 37.1226V23.0625C36.0091 22.1305 35.2535 21.375 34.3216 21.375ZM5.0625 18L14.4145 18.0006C13.5265 18.9262 12.8796 20.0849 12.5748 21.3758L5.0625 21.375C4.13052 21.375 3.375 22.1305 3.375 23.0625V34.8722C3.375 38.6017 6.39833 41.625 10.1278 41.625C11.1197 41.625 12.0617 41.4111 12.9102 41.0269C13.2104 42.1281 13.6402 43.1772 14.1792 44.1579C12.9394 44.6991 11.5687 45 10.1278 45C4.53437 45 0 40.4656 0 34.8722V23.0625C0 20.2666 2.26656 18 5.0625 18ZM48.9375 18C51.7334 18 54 20.2666 54 23.0625V34.875C54 40.4669 49.4669 45 43.875 45C42.4371 45 41.0692 44.7003 39.8304 44.1598L39.9557 43.9321C40.4374 43.0181 40.8251 42.0469 41.106 41.0314C41.9485 41.4127 42.887 41.625 43.875 41.625C47.6029 41.625 50.625 38.6029 50.625 34.875V23.0625C50.625 22.1305 49.8695 21.375 48.9375 21.375L41.4386 21.3758C41.1338 20.0849 40.4869 18.9262 39.5989 18.0006L48.9375 18ZM27 0C31.3492 0 34.875 3.52576 34.875 7.875C34.875 12.2242 31.3492 15.75 27 15.75C22.6508 15.75 19.125 12.2242 19.125 7.875C19.125 3.52576 22.6508 0 27 0ZM45.0067 2.25C48.7346 2.25 51.7567 5.27208 51.7567 9C51.7567 12.7279 48.7346 15.75 45.0067 15.75C41.2788 15.75 38.2567 12.7279 38.2567 9C38.2567 5.27208 41.2788 2.25 45.0067 2.25ZM8.99329 2.25C12.7212 2.25 15.7433 5.27208 15.7433 9C15.7433 12.7279 12.7212 15.75 8.99329 15.75C5.26536 15.75 2.24329 12.7279 2.24329 9C2.24329 5.27208 5.26536 2.25 8.99329 2.25ZM27 3.375C24.5147 3.375 22.5 5.38972 22.5 7.875C22.5 10.3603 24.5147 12.375 27 12.375C29.4853 12.375 31.5 10.3603 31.5 7.875C31.5 5.38972 29.4853 3.375 27 3.375ZM45.0067 5.625C43.1428 5.625 41.6317 7.13604 41.6317 9C41.6317 10.864 43.1428 12.375 45.0067 12.375C46.8707 12.375 48.3817 10.864 48.3817 9C48.3817 7.13604 46.8707 5.625 45.0067 5.625ZM8.99329 5.625C7.12932 5.625 5.61829 7.13604 5.61829 9C5.61829 10.864 7.12932 12.375 8.99329 12.375C10.8572 12.375 12.3683 10.864 12.3683 9C12.3683 7.13604 10.8572 5.625 8.99329 5.625Z" fill="#00448B"/>
</svg>
